<svg id="Layer_3" enable-background="new 0 0 64 64" height="512" viewBox="0 0 64 64" width="512" xmlns="http://www.w3.org/2000/svg"><g><path d="m42 28h-38c-1.105 0-2 .895-2 2v22c0 1.105.895 2 2 2h38c1.105 0 2-.895 2-2v-22c0-1.105-.895-2-2-2z" fill="#2862be"/><path d="m5 31h36v20h-36z" fill="#e2e7f6"/><path d="m5 31v16h26c1.105 0 2-.895 2-2v-14z" fill="#fff"/><path d="m25 34.349v-10.349l-2-2-2 2v10.349c-2.329.825-4 3.04-4 5.651 0 3.314 2.686 6 6 6s6-2.686 6-6c0-2.611-1.671-4.827-4-5.651z" fill="#b5b5b5"/><path d="m48 2-.728.728c-3.376 3.376-7.954 5.272-12.728 5.272h-.544v9.766c0 5.167 2.495 10.016 6.7 13.02l7.3 5.214 7.3-5.214c4.205-3.003 6.7-7.853 6.7-13.02v-9.766h-.544c-4.774 0-9.352-1.896-12.728-5.272z" fill="#f4a93c"/><path d="m48.728 2.728-.728-.728-.728.728c-3.376 3.376-7.954 5.272-12.728 5.272h-.544v9.766c0 3.783 1.342 7.391 3.708 10.234h15.292c1.105 0 2-.895 2-2v-19.215c-2.329-.896-4.474-2.259-6.272-4.057z" fill="#f6b940"/><path d="m42 18h12v8h-12z" fill="#2458ad"/><path d="m42 18v5.723c.295.171.634.277 1 .277h7c1.105 0 2-.895 2-2v-4z" fill="#2862be"/><path d="m33 58h-20c-1.105 0-2 .895-2 2v2h24v-2c0-1.105-.895-2-2-2z" fill="#3279ea"/><path d="m29 58-4-4h-4l-4 4" fill="#2862be"/><g><path d="m22 41h2v2h-2z" fill="#fff"/></g><g><path d="m53 18h-2v-4c0-1.654-1.346-3-3-3s-3 1.346-3 3v4h-2v-4c0-2.757 2.243-5 5-5s5 2.243 5 5z" fill="#939393"/></g><g><path d="m47 21h2v2h-2z" fill="#fff"/></g><g><path d="m22 17h2v2h-2z" fill="#2862be"/></g><g><path d="m22 13h2v2h-2z" fill="#2862be"/></g><g><path d="m26 13h2v2h-2z" fill="#2862be"/></g><g><path d="m30 13h2v2h-2z" fill="#2862be"/></g><g><path d="m37 13h2v2h-2z" fill="#2862be"/></g><path d="m23 22-2 2v10.349c-2.329.825-4 3.04-4 5.651 0 .341.035.674.09 1h3.91c1.105 0 2-.895 2-2z" fill="#ccc"/><path d="m22 57h6l-3-3h-4v2c0 .552.448 1 1 1z" fill="#3279ea"/><path d="m32 62v-1c0-.552-.448-1-1-1h-16.477c-.552 0-1 .448-1 1v1z" fill="#2862be"/><path d="m48 10c-2.209 0-4 1.791-4 4v2h1v-2c0-1.654 1.346-3 3-3s3 1.346 3 3v2h1v-2c0-2.209-1.791-4-4-4z" fill="#706f73"/><path d="m62 7h-.544c-4.541 0-8.81-1.768-12.021-4.979l-.728-.728c-.391-.391-1.023-.391-1.414 0l-.728.728c-3.211 3.211-7.48 4.979-12.021 4.979h-.544c-.552 0-1 .448-1 1v9.766c0 3.315.98 6.515 2.739 9.234h-9.739v-3c0-.265-.105-.52-.293-.707l-2-2c-.391-.391-1.023-.391-1.414 0l-2 2c-.188.187-.293.442-.293.707v3h-16c-1.654 0-3 1.346-3 3v22c0 1.654 1.346 3 3 3h14.586l-2 2h-3.586c-1.654 0-3 1.346-3 3v2c0 .553.448 1 1 1h24c.552 0 1-.447 1-1v-2c0-1.654-1.346-3-3-3h-3.586l-2-2h14.586c1.654 0 3-1.346 3-3v-16.914l2.419 1.728c.174.124.377.186.581.186s.407-.062.581-.187l7.3-5.214c4.458-3.184 7.119-8.355 7.119-13.833v-9.766c0-.552-.448-1-1-1zm-24.751 22c.304.346.626.678.959 1h-12.208v-1zm-11.249 3h14v18h-34v-18h14v1.681c-2.419 1.149-4 3.605-4 6.319 0 3.859 3.14 7 7 7s7-3.141 7-7c0-2.715-1.581-5.171-4-6.319zm-4 2.349v-9.935l1-1 1 1v9.935c0 .424.267.802.667.942 1.993.706 3.333 2.599 3.333 4.709 0 2.757-2.243 5-5 5s-5-2.243-5-5c0-2.11 1.34-4.003 3.333-4.709.4-.141.667-.519.667-.942zm12 25.651v1h-22v-1c0-.552.449-1 1-1h20c.551 0 1 .448 1 1zm-7.414-3h-7.172l2-2h3.172zm16.414-5c0 .552-.449 1-1 1h-38c-.551 0-1-.448-1-1v-22c0-.551.449-1 1-1h16v1h-15c-.552 0-1 .448-1 1v20c0 .553.448 1 1 1h36c.552 0 1-.447 1-1v-18.057l1 .714zm18-34.234c0 4.833-2.348 9.396-6.281 12.206l-6.719 4.799-6.719-4.8c-3.933-2.809-6.281-7.371-6.281-12.205v-8.771c4.904-.115 9.498-2.079 12.979-5.56l.021-.021.021.021c3.481 3.481 8.075 5.445 12.979 5.56z"/><path d="m22 41h2v2h-2z"/><path d="m43 14v3h-1c-.552 0-1 .448-1 1v8c0 .552.448 1 1 1h12c.552 0 1-.448 1-1v-8c0-.552-.448-1-1-1h-1v-3c0-2.757-2.243-5-5-5s-5 2.243-5 5zm10 11h-10v-6h10zm-2-11v3h-6v-3c0-1.654 1.346-3 3-3s3 1.346 3 3z"/><path d="m47 21h2v2h-2z"/><path d="m22 17h2v2h-2z"/><path d="m22 13h2v2h-2z"/><path d="m26 13h2v2h-2z"/><path d="m30 13h2v2h-2z"/><path d="m37 13h2v2h-2z"/></g></svg>