<svg height="512" viewBox="0 0 60 56" width="512" xmlns="http://www.w3.org/2000/svg"><g id="Page-1" fill="none" fill-rule="evenodd"><g id="066---Anonymous-Browsing" fill-rule="nonzero"><path id="Shape" d="m59 9v42c0 2.209139-1.790861 4-4 4h-50c-2.209139 0-4-1.790861-4-4v-42z" fill="#f5f5f5"/><path id="Shape" d="m56 9v42c0 2.209139-1.790861 4-4 4h3c2.209139 0 4-1.790861 4-4v-42z" fill="#cfd8dc"/><path id="Shape" d="m59 5v4h-58v-4c0-2.209139 1.790861-4 4-4h50c2.209139 0 4 1.790861 4 4z" fill="#607d8b"/><path id="Shape" d="m55 1h-3c2.209139 0 4 1.790861 4 4v4h3v-4c0-2.209139-1.790861-4-4-4z" fill="#37474f"/><circle id="Oval" cx="22" cy="41" fill="#02a9f4" r="6"/><path id="Shape" d="m22 35c-.5064496.0029108-1.0104803.0701149-1.5.2 2.6479943.6813094 4.498931 3.0687622 4.498931 5.803s-1.8509367 5.1216906-4.498931 5.803c2.2531797.5872914 4.6426897-.1820582 6.1299399-1.9736543 1.4872502-1.7915962 1.8036517-4.2818866.8116819-6.3884777s-3.1131667-3.4490442-5.4416218-3.443868z" fill="#0377bc"/><circle id="Oval" cx="38" cy="41" fill="#02a9f4" r="6"/><path id="Shape" d="m38 35c-.5064496.0029108-1.0104803.0701149-1.5.2 2.6479943.6813094 4.498931 3.0687622 4.498931 5.803s-1.8509367 5.1216906-4.498931 5.803c2.2531797.5872914 4.6426897-.1820582 6.1299399-1.9736543 1.4872502-1.7915962 1.8036517-4.2818866.8116819-6.3884777s-3.1131667-3.4490442-5.4416218-3.443868z" fill="#0377bc"/><path id="Shape" d="m48.33 31h-36.66c2.0545088-2.0903082 4.6244235-3.6012111 7.45-4.38 3.5193872-1.1067152 7.1908551-1.6533859 10.88-1.62 3.6891449-.0333859 7.3606128.5132848 10.88 1.62 2.8255765.7787889 5.3954912 2.2896918 7.45 4.38z" fill="#783e22"/><path id="Shape" d="m40.88 26.62c-3.5193872-1.1067152-7.1908551-1.6533859-10.88-1.62-3.6891449-.0333859-7.3606128.5132848-10.88 1.62l2.9-9.43c.2508327-.8134252.8347731-1.482368 1.6068644-1.8407709.7720912-.3584029 1.6599357-.3726589 2.4431356-.0392291l2.75 1.18c.7520669.3299606 1.6079331.3299606 2.36 0l2.75-1.18c.7831999-.3334298 1.6710444-.3191738 2.4431356.0392291.7720913.3584029 1.3560317 1.0273457 1.6068644 1.8407709z" fill="#a0522d"/><path id="Shape" d="m34.98 17.19 2.641 8.588c1.1011419.2198614 2.1891648.5009646 3.259.842l-2.9-9.43c-.2508327-.8134252-.8347731-1.482368-1.6068644-1.8407709-.7720912-.3584029-1.6599357-.3726589-2.4431356-.0392291l-.361.155c.676479.3699705 1.1824978.9885973 1.411 1.725z" fill="#783e22"/><circle id="Oval" cx="5" cy="5" fill="#f44335" r="1"/><circle id="Oval" cx="9" cy="5" fill="#ffdc00" r="1"/><circle id="Oval" cx="13" cy="5" fill="#60a917" r="1"/><g fill="#000"><path id="Shape" d="m27 6h6c.5522847 0 1-.44771525 1-1s-.4477153-1-1-1h-6c-.5522847 0-1 .44771525-1 1s.4477153 1 1 1z"/><path id="Shape" d="m44 6h11c.5522847 0 1-.44771525 1-1s-.4477153-1-1-1h-11c-.5522847 0-1 .44771525-1 1s.4477153 1 1 1z"/><path id="Shape" d="m55 0h-50c-2.76005315.00330612-4.99669388 2.23994685-5 5v46c.00330612 2.7600532 2.23994685 4.9966939 5 5h50c2.7600532-.0033061 4.9966939-2.2399468 5-5v-46c-.0033061-2.76005315-2.2399468-4.99669388-5-5zm-50 2h50c1.6568542 0 3 1.34314575 3 3v3h-56v-3c0-1.65685425 1.34314575-3 3-3zm50 52h-50c-1.65685425 0-3-1.3431458-3-3v-41h56v41c0 1.6568542-1.3431458 3-3 3z"/><path id="Shape" d="m38 34c-2.5048715.0034132-4.8170065 1.3450083-6.063 3.518-1.1990054-.6905828-2.6749946-.6905828-3.874 0-1.8446662-3.2166459-5.8608191-4.461945-9.2017077-2.8531978s-4.8715713 5.5250291-3.5070614 8.972886c1.3645099 3.4478568 5.1606714 5.2560085 8.6976689 4.1427912s5.6132688-4.7696297 4.7571002-8.3774794c.7186904-.4890636 1.6633096-.4890636 2.382 0-.6796583 2.9005307.550951 5.9134498 3.0669058 7.5087509 2.5159547 1.5953011 5.7659606 1.4234231 8.0996152-.4283518 2.3336545-1.851775 3.2396089-4.9776871 2.2578058-7.7903507-.9818032-2.8126636-3.6362319-4.6957697-6.6153268-4.6930484zm-16 12c-2.7614237 0-5-2.2385763-5-5s2.2385763-5 5-5 5 2.2385763 5 5c-.0033061 2.7600532-2.2399468 4.9966939-5 5zm16 0c-2.7614237 0-5-2.2385763-5-5s2.2385763-5 5-5 5 2.2385763 5 5c-.0033061 2.7600532-2.2399468 4.9966939-5 5z"/><path id="Shape" d="m41.687 25.841-2.75-8.941c-.334589-1.0844456-1.113236-1.9762081-2.1426733-2.4539433-1.0294374-.4777352-2.2131492-.4966526-3.2573267-.0520567l-2.758 1.184c-.4974307.2199834-1.0645693.2199834-1.562 0l-2.755-1.188c-1.0441775-.4445959-2.2278893-.4256785-3.2573267.0520567-1.0294373.4777352-1.8080843 1.3694977-2.1426733 2.4539433l-2.75 8.945c-2.8083111.8483116-5.3547744 2.3968366-7.4 4.5-.2593655.2960104-.3209862.7166266-.1574295 1.0745956.1635566.357969.5218723.5867155.9154295.5844044h36.66c.3920349.0000429.7479353-.2289955.9103065-.5858246s.1012605-.775624-.1563065-1.0711754c-2.044156-2.1034598-4.589558-3.6526554-7.397-4.502zm-18.711-8.358c.1681513-.5416421.5575113-.9869173 1.0718838-1.2258147s1.105783-.2491357 1.6281162-.0281853l2.742 1.176c1.0057914.4409601 2.1502086.4409601 3.156 0l2.747-1.18c.5224939-.2205885 1.113884-.2100541 1.6281902.0290031.5143062.2390571.9036082.6843629 1.0718098 1.2259969l2.357 7.666c-6.1600145-1.5333433-12.6019855-1.5333433-18.762 0zm-8.676 12.517c3.516-2.477 9.343-4 15.7-4 3.5628424-.0258553 7.1086253.4941749 10.514 1.542.0464235.0179295.0942541.0319777.143.042 1.7900474.5545274 3.4891174 1.3685176 5.043 2.416z"/></g></g></g></svg>